<?xml version="1.0" encoding="UTF-8"?>
<svg xmlns="http://www.w3.org/2000/svg" xmlns:xlink="http://www.w3.org/1999/xlink" viewBox="0 0 50 50" width="18px" height="18px">
<g id="surface172222234">
<path style=" stroke:none;fill-rule:nonzero;fill:rgb(80.000001%,80.000001%,80.000001%);fill-opacity:1;" d="M 41 4 L 9 4 C 6.238281 4 4 6.238281 4 9 L 4 41 C 4 43.761719 6.238281 46 9 46 L 41 46 C 43.761719 46 46 43.761719 46 41 L 46 9 C 46 6.238281 43.761719 4 41 4 Z M 37 26 L 26 26 L 26 37 L 24 37 L 24 26 L 13 26 L 13 24 L 24 24 L 24 13 L 26 13 L 26 24 L 37 24 Z M 37 26 "/>
</g>
</svg>
