<?xml version="1.0" encoding="UTF-8"?>
<svg xmlns="http://www.w3.org/2000/svg" xmlns:xlink="http://www.w3.org/1999/xlink" viewBox="0 0 30 30" width="30px" height="30px">
<g id="surface173545596">
<path style=" stroke:none;fill-rule:nonzero;fill:rgb(80.000001%,80.000001%,80.000001%);fill-opacity:1;" d="M 6 4 C 4.894531 4 4 4.894531 4 6 L 4 24 C 4 25.105469 4.894531 26 6 26 L 24 26 C 25.105469 26 26 25.105469 26 24 L 26 8 L 22 4 L 20 4 L 20 10 C 20 10.550781 19.550781 11 19 11 L 10 11 C 9.449219 11 9 10.550781 9 10 L 9 4 Z M 16 4 L 16 9 L 18 9 L 18 4 Z M 10 16 L 20 16 C 21.105469 16 22 16.894531 22 18 L 22 24 L 8 24 L 8 18 C 8 16.894531 8.894531 16 10 16 Z M 10 16 "/>
</g>
</svg>
