<svg fill="#FFFFFF" xmlns="http://www.w3.org/2000/svg"  viewBox="0 0 50 50" width="50px" height="50px"><path d="M 30.59375 4.59375 L 25.59375 9.59375 L 24.15625 11 L 25.59375 12.40625 L 30.59375 17.40625 L 33.40625 14.59375 L 31.8125 13 L 39 13 C 39.578125 13 40 13.421875 40 14 L 40 36 C 40 36.578125 39.578125 37 39 37 L 27 37 L 27 41 L 39 41 C 41.738281 41 44 38.738281 44 36 L 44 14 C 44 11.261719 41.738281 9 39 9 L 31.8125 9 L 33.40625 7.40625 Z M 11 9 C 8.261719 9 6 11.261719 6 14 L 6 36 C 6 38.738281 8.261719 41 11 41 L 18.1875 41 L 16.59375 42.59375 L 19.40625 45.40625 L 24.40625 40.40625 L 25.84375 39 L 24.40625 37.59375 L 19.40625 32.59375 L 16.59375 35.40625 L 18.1875 37 L 11 37 C 10.421875 37 10 36.578125 10 36 L 10 14 C 10 13.421875 10.421875 13 11 13 L 23 13 L 23 9 Z"/></svg>