<?xml version="1.0" encoding="UTF-8"?>
<svg xmlns="http://www.w3.org/2000/svg" xmlns:xlink="http://www.w3.org/1999/xlink" viewBox="0 0 64 64" width="30px" height="30px">
<g id="surface172921122">
<path style=" stroke:none;fill-rule:nonzero;fill:rgb(80.000001%,80.000001%,80.000001%);fill-opacity:1;" d="M 53.699219 2.132812 C 51.53125 2.125 49.453125 2.988281 47.925781 4.523438 L 19.824219 32.625 C 19.59375 32.859375 19.417969 33.144531 19.3125 33.457031 L 15.046875 46.257812 C 14.828125 46.910156 14.9375 47.625 15.339844 48.179688 C 15.738281 48.734375 16.382812 49.066406 17.066406 49.066406 C 17.296875 49.066406 17.523438 49.03125 17.742188 48.957031 L 30.542969 44.691406 C 30.855469 44.585938 31.140625 44.410156 31.375 44.175781 L 59.476562 16.074219 C 61.8125 13.738281 62.511719 10.226562 61.246094 7.175781 C 59.980469 4.121094 57.003906 2.132812 53.699219 2.132812 Z M 8.535156 6.398438 C 5 6.398438 2.132812 9.265625 2.132812 12.800781 L 2.132812 55.464844 C 2.132812 59 5 61.867188 8.535156 61.867188 L 46.933594 61.867188 C 50.46875 61.867188 53.332031 59 53.332031 55.464844 L 53.332031 34.132812 C 53.332031 32.957031 52.378906 32 51.199219 32 C 50.023438 32 49.066406 32.957031 49.066406 34.132812 L 49.066406 55.464844 C 49.066406 56.644531 48.113281 57.601562 46.933594 57.601562 L 8.535156 57.601562 C 7.355469 57.601562 6.398438 56.644531 6.398438 55.464844 L 6.398438 12.800781 C 6.398438 11.621094 7.355469 10.667969 8.535156 10.667969 L 34.132812 10.667969 C 35.3125 10.667969 36.265625 9.710938 36.265625 8.535156 C 36.265625 7.355469 35.3125 6.398438 34.132812 6.398438 Z M 53.757812 6.414062 C 55.882812 6.445312 57.59375 8.175781 57.601562 10.300781 C 57.601562 11.335938 57.191406 12.328125 56.457031 13.058594 L 28.726562 40.792969 L 20.4375 43.5625 L 23.195312 35.285156 L 50.941406 7.550781 C 51.6875 6.804688 52.703125 6.394531 53.757812 6.414062 Z M 53.757812 6.414062 "/>
</g>
</svg>
